<?xml version="1.0" encoding="utf-8"?>
<!-- Generator: Adobe Illustrator 25.4.1, SVG Export Plug-In . SVG Version: 6.00 Build 0)  -->
<svg version="1.1"
	 id="svg1" inkscape:version="0.38.1" sodipodi:docbase="/home/danny/flat/scalable/actions" sodipodi:docname="idea.svg" sodipodi:version="0.32" xmlns:cc="http://web.resource.org/cc/" xmlns:dc="http://purl.org/dc/elements/1.1/" xmlns:inkscape="http://www.inkscape.org/namespaces/inkscape" xmlns:ns1="http://sozi.baierouge.fr" xmlns:rdf="http://www.w3.org/1999/02/22-rdf-syntax-ns#" xmlns:sodipodi="http://sodipodi.sourceforge.net/DTD/sodipodi-0.dtd" xmlns:svg="http://www.w3.org/2000/svg"
	 xmlns="http://www.w3.org/2000/svg" xmlns:xlink="http://www.w3.org/1999/xlink" x="0px" y="0px" viewBox="0 0 60 60"
	 style="enable-background:new 0 0 60 60;" xml:space="preserve">
<style type="text/css">
	
		.st0{fill-rule:evenodd;clip-rule:evenodd;fill:#FFF400;stroke:#FBD800;stroke-width:3.5267;stroke-linecap:round;stroke-linejoin:round;}
	.st1{fill-rule:evenodd;clip-rule:evenodd;fill:#4C4C4C;stroke:#333333;stroke-width:1.875;}
	.st2{fill-rule:evenodd;clip-rule:evenodd;fill:#7F7F7F;stroke:#333333;stroke-width:3.125;}
	.st3{fill:none;stroke:#333333;stroke-width:1.875;stroke-linecap:round;stroke-linejoin:round;}
	.st4{fill-rule:evenodd;clip-rule:evenodd;fill:#FCFFDF;}
	.st5{fill:none;stroke:#333333;stroke-linecap:round;stroke-linejoin:round;}
	.st6{fill:#333333;}
	.st7{fill:none;stroke:#FFF400;stroke-width:1.875;stroke-linecap:round;stroke-linejoin:round;stroke-dasharray:1.875,1.875;}
</style>
<sodipodi:namedview  bordercolor="#666666" borderopacity="1.0" id="base" inkscape:cx="36.939039" inkscape:cy="20.556488" inkscape:pageopacity="0.0" inkscape:pageshadow="2" inkscape:window-height="685" inkscape:window-width="1016" inkscape:window-x="0" inkscape:window-y="0" inkscape:zoom="4.9119411" pagecolor="#ffffff">
	</sodipodi:namedview>
<path id="path866" class="st0" d="M30.2,3.5c-7.6,0.1-13.9,6-15.2,12.4c-1,5.6,0.2,11.2,1.7,16.6c1,3.3,2.1,6.6,4,9.6
	c2.1,2.9,6.2,4.4,9.9,3.9c2.9,0,6.3,0.1,8.3-2.1c3.3-5.3,4.7-11.3,6.2-17.2c1.3-5.5,1.5-11.7-2.1-16.5C40.1,6.4,35.4,3.4,30.2,3.5z"
	/>
<path id="path859" sodipodi:cx="31.428513" sodipodi:cy="62.417580" sodipodi:rx="5.7258425" sodipodi:ry="5.7258425" sodipodi:stroke-cmyk="(0.0000000 0.0000000 0.0000000 0.80000001)" sodipodi:type="arc" class="st1" d="
	M35.9,52.1c0-3.2-2.5-5.8-5.7-5.8s-5.8,2.5-5.8,5.7c0,0,0,0.1,0,0.1c0,3.2,2.5,5.8,5.7,5.8c3.2,0,5.8-2.5,5.8-5.7
	C35.9,52.2,35.9,52.2,35.9,52.1z"/>
<path id="rect858" sodipodi:stroke-cmyk="(0.0000000 0.0000000 0.0000000 0.80000001)" class="st2" d="M22,38.8h15.7
	c2.8,0,5,2.2,5,5v3.7c0,2.8-2.2,5-5,5H22c-2.8,0-5-2.2-5-5v-3.7C17,41,19.3,38.8,22,38.8z"/>
<path id="path860" sodipodi:nodetypes="cccccc" sodipodi:stroke-cmyk="(0.0000000 0.0000000 0.0000000 0.80000001)" class="st3" d="
	M18.5,40.9l23.9,2.9 M17.3,44.5l24.8,3.3 M18.1,48.4l22.1,3.1"/>
<path id="path864" sodipodi:cx="31.746614" sodipodi:cy="23.545471" sodipodi:rx="10.370136" sodipodi:ry="10.370136" sodipodi:type="arc" class="st4" d="
	M40.3,22.4C40.3,16.7,35.7,12,30,12s-10.4,4.6-10.4,10.4l0,0c0,5.7,4.6,10.4,10.4,10.4S40.3,28.1,40.3,22.4z"/>
<path id="path862" sodipodi:stroke-cmyk="(0.0000000 0.0000000 0.0000000 0.80000001)" class="st5" d="M26,38.4l-2.4-14.1
	 M34.7,38.5l1.8-13.2"/>
<path id="path863" class="st6" d="M22.6,26.7c-0.5-0.3-0.9-0.8-1.2-1.3c-0.6-1.2-0.7-2.3,0-3.6c1.1-1.7,2.7-3.2,4.7-3.6
	c1.9-0.2,3.2,0.7,3.2,2.7c-0.1,1.3-0.4,2.7-1.4,3.6c-1.4,0.9-3.3,0.5-3.6-1.3c-0.1-1.5,1-2.2,2.3-2.6c1.4-0.3,3-0.2,4.1,1
	c0.6,0.7,0.7,1.6,0.5,2.5c-0.5,1.5-2.7,1.6-3.1,0c-0.2-1.5,0.8-2.4,2.1-2.9c1.5-0.6,3.6-1,4.8,0.3c0.6,0.9,0.6,2,0.1,3
	c-1,1.6-3,0.5-3-1.1c0.1-1.3,0.9-2,2-2.4c1.3-0.3,2.7,0,3.5,1.1c0.5,0.7,0.7,1.6,0.7,2.5c0,0.3,0,0.5-0.1,0.8L36,25.3
	c0-0.2,0.1-0.5,0.1-0.7c0-0.7-0.1-1.3-0.5-1.9c-0.1-0.1-0.4-0.4-0.5-0.5c-0.5,0-0.7,0.7-0.7,1.1c0,0.2,0.1,0.4,0.1,0.6
	c0.1,0.2-0.4-0.2-0.6-0.2c-0.3,0-1.2,0.5-1,0.2c0.3-0.5,0.3-1.4,0-1.9c-0.3-0.4-1.1,0-1.5,0.1c-0.7,0.3-1.3,0.8-1.1,1.6
	c0.1,0.2-1.6,0.5-1.4,0.1c0.1-0.6,0.1-1.2-0.3-1.7c-0.3-0.4-0.7-0.4-1.1-0.3c-0.6,0.1-0.9,0.5-0.9,1.2c0,0.1,0.2,0.5,0.2,0.6
	c-0.1,0.2-0.9,0.1-0.7,0c0.8-0.5,1-1.8,1-2.7c0-0.3-0.2-1.3-0.4-1.4c-1.4,0.1-2.7,1.6-3.3,2.7C23,23.2,23.1,24,23.6,25
	c0.1,0.2,0.6,0.7,0.5,0.6C24.2,25.6,22.6,26.7,22.6,26.7z"/>
<path id="path871" sodipodi:nodetypes="cccccccccccc" sodipodi:stroke-cmyk="(0.0000000 0.0000000 0.0000000 0.50000000)" class="st7" d="
	M12.3,12L2.9,5.4 M10.9,18.4l-6.1-1.3 M11.1,24.4l-8.4,4.1 M44.9,5.8l3.3-2.9 M49.9,17.4l7.4-2.4 M48.5,11.1l7.3-4.1"/>
</svg>
